<svg xmlns="http://www.w3.org/2000/svg" width="950" height="650">
<rect width="100%" height="100%" fill="white" />
<text x="475.0" y="30" font-size="24" text-anchor="middle">DSO symbolic regression: test-set trend by valve opening</text>
<line x1="90.00" y1="580" x2="90.00" y2="60" stroke="#eeeeee" /><text x="90.00" y="602" font-size="14" text-anchor="middle">0.81</text><line x1="256.00" y1="580" x2="256.00" y2="60" stroke="#eeeeee" /><text x="256.00" y="602" font-size="14" text-anchor="middle">1.54</text><line x1="422.00" y1="580" x2="422.00" y2="60" stroke="#eeeeee" /><text x="422.00" y="602" font-size="14" text-anchor="middle">2.28</text><line x1="588.00" y1="580" x2="588.00" y2="60" stroke="#eeeeee" /><text x="588.00" y="602" font-size="14" text-anchor="middle">3.01</text><line x1="754.00" y1="580" x2="754.00" y2="60" stroke="#eeeeee" /><text x="754.00" y="602" font-size="14" text-anchor="middle">3.75</text><line x1="920.00" y1="580" x2="920.00" y2="60" stroke="#eeeeee" /><text x="920.00" y="602" font-size="14" text-anchor="middle">4.48</text><line x1="90" y1="580.00" x2="920" y2="580.00" stroke="#eeeeee" /><text x="80" y="585.00" font-size="14" text-anchor="end">3.74</text><line x1="90" y1="476.00" x2="920" y2="476.00" stroke="#eeeeee" /><text x="80" y="481.00" font-size="14" text-anchor="end">8.37</text><line x1="90" y1="372.00" x2="920" y2="372.00" stroke="#eeeeee" /><text x="80" y="377.00" font-size="14" text-anchor="end">12.99</text><line x1="90" y1="268.00" x2="920" y2="268.00" stroke="#eeeeee" /><text x="80" y="273.00" font-size="14" text-anchor="end">17.62</text><line x1="90" y1="164.00" x2="920" y2="164.00" stroke="#eeeeee" /><text x="80" y="169.00" font-size="14" text-anchor="end">22.24</text><line x1="90" y1="60.00" x2="920" y2="60.00" stroke="#eeeeee" /><text x="80" y="65.00" font-size="14" text-anchor="end">26.87</text>
<rect x="90" y="60" width="830" height="520" fill="none" stroke="#222222" />
<polyline points="127.73,539.35 187.21,494.75 239.95,451.23 312.67,403.72 426.61,317.74 558.05,223.02" fill="none" stroke="#1f77b4" stroke-width="2" /><polyline points="127.73,540.16 187.21,490.30 239.95,458.41 312.67,396.31 426.61,314.79 558.05,222.33" fill="none" stroke="#1f77b4" stroke-width="2" stroke-dasharray="6 4" /><circle cx="127.73" cy="539.35" r="4" fill="#1f77b4" /><circle cx="187.21" cy="494.75" r="4" fill="#1f77b4" /><circle cx="239.95" cy="451.23" r="4" fill="#1f77b4" /><circle cx="312.67" cy="403.72" r="4" fill="#1f77b4" /><circle cx="426.61" cy="317.74" r="4" fill="#1f77b4" /><circle cx="558.05" cy="223.02" r="4" fill="#1f77b4" /><line x1="123.73" y1="536.16" x2="131.73" y2="544.16" stroke="#1f77b4" stroke-width="2" /><line x1="123.73" y1="544.16" x2="131.73" y2="536.16" stroke="#1f77b4" stroke-width="2" /><line x1="183.21" y1="486.30" x2="191.21" y2="494.30" stroke="#1f77b4" stroke-width="2" /><line x1="183.21" y1="494.30" x2="191.21" y2="486.30" stroke="#1f77b4" stroke-width="2" /><line x1="235.95" y1="454.41" x2="243.95" y2="462.41" stroke="#1f77b4" stroke-width="2" /><line x1="235.95" y1="462.41" x2="243.95" y2="454.41" stroke="#1f77b4" stroke-width="2" /><line x1="308.67" y1="392.31" x2="316.67" y2="400.31" stroke="#1f77b4" stroke-width="2" /><line x1="308.67" y1="400.31" x2="316.67" y2="392.31" stroke="#1f77b4" stroke-width="2" /><line x1="422.61" y1="310.79" x2="430.61" y2="318.79" stroke="#1f77b4" stroke-width="2" /><line x1="422.61" y1="318.79" x2="430.61" y2="310.79" stroke="#1f77b4" stroke-width="2" /><line x1="554.05" y1="218.33" x2="562.05" y2="226.33" stroke="#1f77b4" stroke-width="2" /><line x1="554.05" y1="226.33" x2="562.05" y2="218.33" stroke="#1f77b4" stroke-width="2" /><polyline points="152.33,544.14 213.96,489.04 323.63,428.12 427.25,367.16 534.34,310.03 719.08,188.37 882.27,95.86" fill="none" stroke="#2ca02c" stroke-width="2" /><polyline points="152.33,542.39 213.96,502.32 323.63,431.34 427.25,367.90 534.34,305.48 719.08,193.85 882.27,99.76" fill="none" stroke="#2ca02c" stroke-width="2" stroke-dasharray="6 4" /><circle cx="152.33" cy="544.14" r="4" fill="#2ca02c" /><circle cx="213.96" cy="489.04" r="4" fill="#2ca02c" /><circle cx="323.63" cy="428.12" r="4" fill="#2ca02c" /><circle cx="427.25" cy="367.16" r="4" fill="#2ca02c" /><circle cx="534.34" cy="310.03" r="4" fill="#2ca02c" /><circle cx="719.08" cy="188.37" r="4" fill="#2ca02c" /><circle cx="882.27" cy="95.86" r="4" fill="#2ca02c" /><line x1="148.33" y1="538.39" x2="156.33" y2="546.39" stroke="#2ca02c" stroke-width="2" /><line x1="148.33" y1="546.39" x2="156.33" y2="538.39" stroke="#2ca02c" stroke-width="2" /><line x1="209.96" y1="498.32" x2="217.96" y2="506.32" stroke="#2ca02c" stroke-width="2" /><line x1="209.96" y1="506.32" x2="217.96" y2="498.32" stroke="#2ca02c" stroke-width="2" /><line x1="319.63" y1="427.34" x2="327.63" y2="435.34" stroke="#2ca02c" stroke-width="2" /><line x1="319.63" y1="435.34" x2="327.63" y2="427.34" stroke="#2ca02c" stroke-width="2" /><line x1="423.25" y1="363.90" x2="431.25" y2="371.90" stroke="#2ca02c" stroke-width="2" /><line x1="423.25" y1="371.90" x2="431.25" y2="363.90" stroke="#2ca02c" stroke-width="2" /><line x1="530.34" y1="301.48" x2="538.34" y2="309.48" stroke="#2ca02c" stroke-width="2" /><line x1="530.34" y1="309.48" x2="538.34" y2="301.48" stroke="#2ca02c" stroke-width="2" /><line x1="715.08" y1="189.85" x2="723.08" y2="197.85" stroke="#2ca02c" stroke-width="2" /><line x1="715.08" y1="197.85" x2="723.08" y2="189.85" stroke="#2ca02c" stroke-width="2" /><line x1="878.27" y1="95.76" x2="886.27" y2="103.76" stroke="#2ca02c" stroke-width="2" /><line x1="878.27" y1="103.76" x2="886.27" y2="95.76" stroke="#2ca02c" stroke-width="2" />
<circle cx="740" cy="70" r="4" fill="#1f77b4" /><text x="755" y="75" font-size="14">actual B-3W50</text><line x1="736" y1="86" x2="744" y2="94" stroke="#1f77b4" stroke-width="2" /><line x1="736" y1="94" x2="744" y2="86" stroke="#1f77b4" stroke-width="2" /><text x="755" y="95" font-size="14">pred B-3W50</text><circle cx="740" cy="110" r="4" fill="#2ca02c" /><text x="755" y="115" font-size="14">actual B7W35</text><line x1="736" y1="126" x2="744" y2="134" stroke="#2ca02c" stroke-width="2" /><line x1="736" y1="134" x2="744" y2="126" stroke="#2ca02c" stroke-width="2" /><text x="755" y="135" font-size="14">pred B7W35</text>
<text x="475.0" y="630" font-size="18" text-anchor="middle">pi5 = Z</text>
<text x="25" y="325.0" font-size="18" text-anchor="middle" transform="rotate(-90 25 325.0)">Mass flow (g/s)</text>
</svg>